<?xml version="1.0" encoding="UTF-8" standalone="no"?><!DOCTYPE svg PUBLIC "-//W3C//DTD SVG 1.1//EN" "http://www.w3.org/Graphics/SVG/1.1/DTD/svg11.dtd"><svg width="100%" height="100%" viewBox="0 0 443 443" version="1.1" xmlns="http://www.w3.org/2000/svg" xmlns:xlink="http://www.w3.org/1999/xlink" xml:space="preserve" xmlns:affinity="https://www.affinity.studio/" style="fill-rule:evenodd;clip-rule:evenodd;stroke-linejoin:round;stroke-miterlimit:2;"><g id="_108design-activity-icons" affinity:id="108design-activity-icons"><path d="M332.185,0c61.113,0 110.728,49.616 110.728,110.728l0,221.457c0,61.113 -49.616,110.728 -110.728,110.728l-221.457,0c-61.113,0 -110.728,-49.616 -110.728,-110.728l0,-221.457c0,-61.113 49.616,-110.728 110.728,-110.728l221.457,0Z" style="fill:#f0ad4e;"/><g id="Frontpage"><g id="topr"><path d="M339.146,64.952c20.333,0 36.841,16.508 36.841,36.841l0,233.327c0,20.333 -16.508,36.841 -36.841,36.841l-233.327,0c-20.333,0 -36.841,-16.508 -36.841,-36.841l0,-233.327c0,-20.333 16.508,-36.841 36.841,-36.841l233.327,0Z" style="fill:#a5a5a5;"/></g></g><g id="pen"><path d="M149.129,237.872l103.917,-110.652l45.684,42.903l-103.917,110.652l-45.684,-42.903Z" style="fill:#fff;"/><path d="M149.129,237.872l103.917,-110.652l45.684,42.903l-103.917,110.652l-45.684,-42.903Zm27.547,-0.865l17.272,16.221l77.235,-82.241l-17.272,-16.221l-77.235,82.241Z" style="fill:#fff;"/><path d="M256.838,123.182c15.081,-16.058 37.533,-19.472 50.148,-7.625c12.615,11.847 10.616,34.469 -4.465,50.528l-45.684,-42.903Z" style="fill:#fff;"/><path d="M256.838,123.182c15.081,-16.058 37.533,-19.472 50.148,-7.625c12.615,11.847 10.616,34.469 -4.465,50.528l-45.684,-42.903Zm33.822,5.028l4.722,4.435c-0.331,-1.093 -0.882,-2.079 -1.737,-2.882c-0.855,-0.803 -1.874,-1.291 -2.986,-1.552Z" style="fill:#fff;"/><path d="M124.942,309.4l21.152,-68.297l45.684,42.903l-66.836,25.394Z" style="fill:#fff;"/><path d="M124.942,309.4l21.152,-68.297l45.684,42.903l-66.836,25.394Zm30.44,-32.413l0.323,-0.123l-0.221,-0.208l-0.102,0.33Z" style="fill:#fff;"/></g><path d="M114.623,101.063c1.135,-1.135 2.977,-1.135 4.112,-0l13.022,13.022c1.135,1.135 1.135,2.977 -0,4.112l-14.473,14.473c-1.135,1.135 -2.977,1.135 -4.112,0l-13.022,-13.022c-1.135,-1.135 -1.135,-2.977 0,-4.112l14.473,-14.473Z" style="fill:#222;"/><path d="M114.623,168.595c1.135,-1.135 2.977,-1.135 4.112,-0l13.022,13.022c1.135,1.135 1.135,2.977 -0,4.112l-14.473,14.473c-1.135,1.135 -2.977,1.135 -4.112,0l-13.022,-13.022c-1.135,-1.135 -1.135,-2.977 0,-4.112l14.473,-14.473Z" style="fill:#222;"/><path d="M114.623,234.833c1.135,-1.135 2.977,-1.135 4.112,-0l13.022,13.022c1.135,1.135 1.135,2.977 -0,4.112l-14.473,14.473c-1.135,1.135 -2.977,1.135 -4.112,0l-13.022,-13.022c-1.135,-1.135 -1.135,-2.977 0,-4.112l14.473,-14.473Z" style="fill:#222;"/><path d="M335.971,110.32c1.807,0 3.273,1.467 3.273,3.273l0,6.547c0,1.807 -1.467,3.273 -3.273,3.273l-183.402,0c-1.807,0 -3.273,-1.467 -3.273,-3.273l0,-6.547c0,-1.807 1.467,-3.273 3.273,-3.273l183.402,0Z"/><path d="M335.971,110.32c1.807,0 3.273,1.467 3.273,3.273l0,6.547c0,1.807 -1.467,3.273 -3.273,3.273l-183.402,0c-1.807,0 -3.273,-1.467 -3.273,-3.273l0,-6.547c0,-1.807 1.467,-3.273 3.273,-3.273l183.402,0Z"/><path d="M335.971,176.745c1.807,0 3.273,1.467 3.273,3.273l0,6.547c0,1.807 -1.467,3.273 -3.273,3.273l-183.402,0c-1.807,0 -3.273,-1.467 -3.273,-3.273l0,-6.547c0,-1.807 1.467,-3.273 3.273,-3.273l183.402,0Z"/><path d="M335.971,176.745c1.807,0 3.273,1.467 3.273,3.273l0,6.547c0,1.807 -1.467,3.273 -3.273,3.273l-183.402,0c-1.807,0 -3.273,-1.467 -3.273,-3.273l0,-6.547c0,-1.807 1.467,-3.273 3.273,-3.273l183.402,0Z"/><path d="M335.971,245.068c1.807,0 3.273,1.467 3.273,3.273l0,6.547c0,1.807 -1.467,3.273 -3.273,3.273l-183.402,0c-1.807,0 -3.273,-1.467 -3.273,-3.273l0,-6.547c0,-1.807 1.467,-3.273 3.273,-3.273l183.402,0Z"/><path d="M335.971,245.068c1.807,0 3.273,1.467 3.273,3.273l0,6.547c0,1.807 -1.467,3.273 -3.273,3.273l-183.402,0c-1.807,0 -3.273,-1.467 -3.273,-3.273l0,-6.547c0,-1.807 1.467,-3.273 3.273,-3.273l183.402,0Z"/><path d="M114.623,302.192c1.135,-1.135 2.977,-1.135 4.112,-0l13.022,13.022c1.135,1.135 1.135,2.977 -0,4.112l-14.473,14.473c-1.135,1.135 -2.977,1.135 -4.112,0l-13.022,-13.022c-1.135,-1.135 -1.135,-2.977 0,-4.112l14.473,-14.473Z" style="fill:#222;"/><path d="M335.971,312.428c1.807,0 3.273,1.467 3.273,3.273l0,6.547c0,1.807 -1.467,3.273 -3.273,3.273l-183.402,0c-1.807,0 -3.273,-1.467 -3.273,-3.273l0,-6.547c0,-1.807 1.467,-3.273 3.273,-3.273l183.402,0Z"/><path d="M335.971,312.428c1.807,0 3.273,1.467 3.273,3.273l0,6.547c0,1.807 -1.467,3.273 -3.273,3.273l-183.402,0c-1.807,0 -3.273,-1.467 -3.273,-3.273l0,-6.547c0,-1.807 1.467,-3.273 3.273,-3.273l183.402,0Z"/></g></svg>